<svg width="100" height="100" xmlns="http://www.w3.org/2000/svg" xmlns:xlink="http://www.w3.org/1999/xlink"><defs><path id="a" d="M1-.273h44v20H1z"/></defs><g fill="none" fill-rule="evenodd"><path d="M50.5 54C38 54 27.057 60.76 21.016 70.874 19.013 74.229 18 78.088 18 82h65c0-3.912-1.013-7.771-3.016-11.126C73.943 60.76 63.001 54 50.5 54" fill-opacity=".3" fill="#AAA"/><path d="M76.483 35.273l4.012-3M78.496 43.773H84.5M24.517 35.273l-4.012-3M22.504 43.773H16.5M76.483 52.773l4.012 3M24.517 52.773l-4.012 3" stroke-opacity=".6" stroke="#AAA" stroke-width="3" stroke-linecap="round"/><path d="M53 19.83c0-1.22-1.306-2.162-2.708-1.719-.786.249-1.292 1.016-1.292 1.835V63h4V19.83z" fill="#6FBF5C"/><g transform="translate(28 62.273)"><mask id="b" fill="#fff"><use xlink:href="#a"/></mask><path d="M44.333 11.59C40.688 5.334 34.403-.274 23.806-.274h-1.612C11.597-.273 5.311 5.335 1.667 11.59c-2.222 3.813 1.377 8.138 6.764 8.138H37.57c5.387 0 8.986-4.325 6.764-8.138" fill="#6FBF5C" mask="url(#b)"/></g><path d="M47 56h-4.8C36.015 56 31 50.985 31 44.8V42h4.8C41.985 42 47 47.015 47 53.2V56zM47 28h-1.6a6.4 6.4 0 0 1-6.4-6.4V20h1.6a6.4 6.4 0 0 1 6.4 6.4V28z" fill="#9BD96F"/><path d="M55 56h4.8C65.985 56 71 50.985 71 44.8V42h-4.8C60.015 42 55 47.015 55 53.2V56zM55 28h1.6a6.4 6.4 0 0 0 6.4-6.4V20h-1.6a6.4 6.4 0 0 0-6.4 6.4V28z" fill="#5A9C4B"/><path d="M47 40h-4a8 8 0 0 1-8-8v-2h4a8 8 0 0 1 8 8v2z" fill="#9BD96F"/><path d="M55 40h4a8 8 0 0 0 8-8v-2h-4a8 8 0 0 0-8 8v2zM53.022 62l3.254 5.588c2.122 3.644-.395 8.355-4.604 8.399H29.007C28.837 79.122 32.038 82 36.43 82h29.138c5.387 0 8.986-4.334 6.765-8.155-3.411-5.863-9.133-11.157-18.535-11.816L53.022 62z" fill="#5A9C4B"/></g></svg>