<svg width="20" height="20" viewBox="0 0 20 20" fill="none" xmlns="http://www.w3.org/2000/svg">
<path fill-rule="evenodd" clip-rule="evenodd" d="M10 20C15.5228 20 20 15.5228 20 10C20 4.47715 15.5228 0 10 0C4.47715 0 0 4.47715 0 10C0 15.5228 4.47715 20 10 20ZM6 5C4.89543 5 4 5.89543 4 7V12C4 13.1046 4.89543 14 6 14V17L9.75 14H14C15.1046 14 16 13.1046 16 12V7C16 5.89543 15.1046 5 14 5H6ZM6 7.5C6 7.22386 6.22386 7 6.5 7H13.5C13.7761 7 14 7.22386 14 7.5C14 7.77614 13.7761 8 13.5 8H6.5C6.22386 8 6 7.77614 6 7.5ZM6.5 9C6.22386 9 6 9.22386 6 9.5C6 9.77614 6.22386 10 6.5 10H13.5C13.7761 10 14 9.77614 14 9.5C14 9.22386 13.7761 9 13.5 9H6.5ZM6 11.5C6 11.2239 6.22386 11 6.5 11H11.5C11.7761 11 12 11.2239 12 11.5C12 11.7761 11.7761 12 11.5 12H6.5C6.22386 12 6 11.7761 6 11.5Z" fill="#AAAAAA"/>
</svg>
