<svg width="100" height="100" xmlns="http://www.w3.org/2000/svg"><g fill="none" fill-rule="evenodd"><path d="M87 50H63a3 3 0 1 1 0-6h24a3 3 0 1 1 0 6M84 82H66a4 4 0 0 1-4-4V50h26v28a4 4 0 0 1-4 4M37 54H13a3 3 0 1 1 0-6h24a3 3 0 1 1 0 6M34 82H16a4 4 0 0 1-4-4V54h26v24a4 4 0 0 1-4 4" fill-opacity=".3" fill="#AAA"/><path d="M74 22.5l6.008-3M77.004 31h7.009M27 22.5l-6.007-3M23.996 31h-7.009" stroke-opacity=".6" stroke="#AAA" stroke-width="3" stroke-linecap="round"/><path d="M77 48H23a3 3 0 0 1-3-3v-2a3 3 0 0 1 3-3h54a3 3 0 0 1 3 3v2a3 3 0 0 1-3 3M72 82H28a4 4 0 0 1-4-4V48h52v30a4 4 0 0 1-4 4" fill="#6ACCF2"/><path fill="#4495D4" d="M24 54h52v-6H24z"/><path d="M60 36h-4v-4c0-2.206 1.795-4 4-4 2.206 0 4 1.794 4 4s-1.794 4-4 4zm-16 0h-4c-2.206 0-4-1.794-4-4s1.794-4 4-4 4 1.794 4 4v4zm16-12a8 8 0 0 0-8 8v4h-4v-4a8 8 0 1 0-8 8h6v42h8V40h6a8 8 0 0 0 0-16z" fill="#357DB6"/><path fill="#357DB6" d="M30 54h4V40h-4z"/><path d="M35 66h-6a1 1 0 0 1-1-1V55a1 1 0 0 1 1-1h6a1 1 0 0 1 1 1v10a1 1 0 0 1-1 1" fill="#FFF"/></g></svg>